<svg width="49" height="49" viewBox="0 0 49 49" fill="none" xmlns="http://www.w3.org/2000/svg">
<g clip-path="url(#clip0_55_719)">
<path d="M24.5 49C38.031 49 49 38.031 49 24.5C49 10.969 38.031 0 24.5 0C10.969 0 0 10.969 0 24.5C0 38.031 10.969 49 24.5 49Z" fill="#F6DD6F"/>
<path d="M13.8345 24.5C17.4225 24.5 20.3312 21.5913 20.3312 18.0033C20.3312 14.4153 17.4225 11.5067 13.8345 11.5067C10.2465 11.5067 7.33789 14.4153 7.33789 18.0033C7.33789 21.5913 10.2465 24.5 13.8345 24.5Z" fill="white"/>
<path d="M13.8345 24.5C17.4225 24.5 20.3312 21.5913 20.3312 18.0033C20.3312 14.4153 17.4225 11.5067 13.8345 11.5067C10.2465 11.5067 7.33789 14.4153 7.33789 18.0033C7.33789 21.5913 10.2465 24.5 13.8345 24.5Z" fill="white"/>
<path d="M13.8345 22.5478C16.3444 22.5478 18.379 20.5132 18.379 18.0033C18.379 15.4935 16.3444 13.4589 13.8345 13.4589C11.3247 13.4589 9.29004 15.4935 9.29004 18.0033C9.29004 20.5132 11.3247 22.5478 13.8345 22.5478Z" fill="#311907"/>
<path d="M34.3668 24.5C37.9548 24.5 40.8634 21.5913 40.8634 18.0033C40.8634 14.4153 37.9548 11.5067 34.3668 11.5067C30.7788 11.5067 27.8701 14.4153 27.8701 18.0033C27.8701 21.5913 30.7788 24.5 34.3668 24.5Z" fill="white"/>
<path d="M34.3667 22.5478C36.8766 22.5478 38.9112 20.5132 38.9112 18.0033C38.9112 15.4935 36.8766 13.4589 34.3667 13.4589C31.8569 13.4589 29.8223 15.4935 29.8223 18.0033C29.8223 20.5132 31.8569 22.5478 34.3667 22.5478Z" fill="#311907"/>
<path d="M32.9224 30.4464H16.0776V31.6103H32.9224V30.4464Z" fill="#E09FBD"/>
</g>
<defs>
<clipPath id="clip0_55_719">
<rect width="49" height="49" fill="white"/>
</clipPath>
</defs>
</svg>
