<svg width="30" height="30" viewBox="0 0 30 30" fill="none" xmlns="http://www.w3.org/2000/svg">
<g clip-path="url(#clip0_55_785)">
<path d="M15 30C23.2843 30 30 23.2843 30 15C30 6.71573 23.2843 0 15 0C6.71573 0 0 6.71573 0 15C0 23.2843 6.71573 30 15 30Z" fill="#E94716"/>
<path d="M20.1566 20.6651H9.84344V21.3777H20.1566V20.6651Z" fill="#E09FBD"/>
<path d="M11.8678 13.6914C11.1261 15.0389 9.43208 15.528 8.08788 14.7862C6.74368 14.0445 6.25134 12.3505 6.99308 11.0063C7.08378 10.8378 7.19391 10.6856 7.31051 10.5431L6.25458 9.96005C6.14446 10.109 6.03757 10.2613 5.94687 10.4265C4.88771 12.3505 5.58734 14.7668 7.50809 15.8292C9.42884 16.8916 11.8484 16.1887 12.9108 14.268C13.0015 14.1028 13.076 13.9311 13.1408 13.7594L12.0849 13.1764C12.0298 13.3513 11.9553 13.5262 11.8646 13.6914H11.8678Z" fill="white"/>
<path d="M8.08785 14.7862C9.43529 15.528 11.1261 15.0389 11.8678 13.6914C11.9585 13.523 12.033 13.3513 12.0881 13.1764L7.31048 10.5431C7.19064 10.6824 7.08375 10.8378 6.99306 11.0063C6.25132 12.3537 6.74041 14.0445 8.08785 14.7862Z" fill="#311907"/>
<path d="M23.1202 11.22C23.6936 12.6452 23.0036 14.268 21.5785 14.8413C20.1533 15.4146 18.5305 14.7247 17.9572 13.2995C17.8859 13.1213 17.8341 12.9432 17.8017 12.7618L16.6843 13.212C16.7296 13.3902 16.7814 13.5683 16.8527 13.7465C17.6722 15.7838 19.9881 16.7685 22.0254 15.949C24.0628 15.1296 25.0475 12.8136 24.228 10.7763C24.1567 10.6014 24.0725 10.4362 23.9786 10.2742L22.8611 10.7245C22.9615 10.8767 23.049 11.0451 23.1202 11.22Z" fill="white"/>
<path d="M21.5752 14.8413C23.0004 14.268 23.6903 12.6452 23.117 11.22C23.0458 11.0419 22.9583 10.8767 22.8579 10.7245L17.7985 12.7618C17.8309 12.9432 17.8827 13.1246 17.954 13.2995C18.5273 14.7247 20.1501 15.4146 21.5752 14.8413Z" fill="#311907"/>
</g>
<defs>
<clipPath id="clip0_55_785">
<rect width="30" height="30" fill="white"/>
</clipPath>
</defs>
</svg>
