<svg width="49" height="49" viewBox="0 0 49 49" fill="none" xmlns="http://www.w3.org/2000/svg">
<g clip-path="url(#clip0_55_727)">
<path d="M24.5 49C38.031 49 49 38.031 49 24.5C49 10.969 38.031 0 24.5 0C10.969 0 0 10.969 0 24.5C0 38.031 10.969 49 24.5 49Z" fill="#EA8532"/>
<path d="M32.9224 33.753H16.0776V34.9169H32.9224V33.753Z" fill="#E09FBD"/>
<path d="M18.6013 19.8233C18.6013 22.3362 16.5645 24.3677 14.0568 24.3677C11.5491 24.3677 9.51231 22.3309 9.51231 19.8233C9.51231 19.5111 9.54405 19.2043 9.60225 18.9133H7.63421C7.59188 19.2096 7.56543 19.5164 7.56543 19.8233C7.56543 23.4102 10.4752 26.3199 14.0621 26.3199C17.649 26.3199 20.5587 23.4102 20.5587 19.8233C20.5587 19.5111 20.527 19.2096 20.49 18.9133H18.5219C18.5801 19.2096 18.6119 19.5111 18.6119 19.8233H18.6013Z" fill="white"/>
<path d="M14.0567 24.3677C16.5696 24.3677 18.6012 22.3309 18.6012 19.8233C18.6012 19.5111 18.5694 19.2043 18.5112 18.9133H9.60214C9.54395 19.2096 9.51221 19.5111 9.51221 19.8233C9.51221 22.3362 11.549 24.3677 14.0567 24.3677Z" fill="#311907"/>
<path d="M39.1335 19.8233C39.1335 22.3362 37.0967 24.3677 34.589 24.3677C32.0814 24.3677 30.0445 22.3309 30.0445 19.8233C30.0445 19.5111 30.0763 19.2043 30.1345 18.9133H28.1664C28.1241 19.2096 28.0977 19.5164 28.0977 19.8233C28.0977 23.4102 31.0074 26.3199 34.5943 26.3199C38.1812 26.3199 41.091 23.4102 41.091 19.8233C41.091 19.5111 41.0592 19.2096 41.0222 18.9133H39.0541C39.1123 19.2096 39.1441 19.5111 39.1441 19.8233H39.1335Z" fill="white"/>
<path d="M34.5889 24.3677C37.1019 24.3677 39.1334 22.3309 39.1334 19.8233C39.1334 19.5111 39.1017 19.2043 39.0435 18.9133H30.1344C30.0762 19.2096 30.0444 19.5111 30.0444 19.8233C30.0444 22.3362 32.0812 24.3677 34.5889 24.3677Z" fill="#311907"/>
</g>
<defs>
<clipPath id="clip0_55_727">
<rect width="49" height="49" fill="white"/>
</clipPath>
</defs>
</svg>
