<svg width="49" height="49" viewBox="0 0 49 49" fill="none" xmlns="http://www.w3.org/2000/svg">
<g clip-path="url(#clip0_55_751)">
<path d="M24.5 49C38.031 49 49 38.031 49 24.5C49 10.969 38.031 0 24.5 0C10.969 0 0 10.969 0 24.5C0 38.031 10.969 49 24.5 49Z" fill="#E94716"/>
<path d="M32.9224 33.753H16.0776V34.9169H32.9224V33.753Z" fill="#E09FBD"/>
<path d="M19.3842 22.3626C18.1727 24.5635 15.4058 25.3623 13.2103 24.1508C11.0147 22.9393 10.2106 20.1724 11.4221 17.9769C11.5702 17.7018 11.7501 17.4531 11.9406 17.2203L10.2159 16.2681C10.036 16.5114 9.86142 16.7601 9.71328 17.0299C7.98331 20.1724 9.12605 24.1191 12.2633 25.8543C15.4005 27.5896 19.3525 26.4416 21.0877 23.3043C21.2358 23.0345 21.3575 22.7541 21.4633 22.4737L19.7387 21.5215C19.6487 21.8072 19.527 22.0928 19.3789 22.3626H19.3842Z" fill="white"/>
<path d="M13.2102 24.1508C15.411 25.3623 18.1726 24.5635 19.3841 22.3626C19.5323 22.0875 19.654 21.8071 19.7439 21.5215L11.9405 17.2203C11.7448 17.4478 11.5702 17.7018 11.422 17.9769C10.2105 20.1777 11.0094 22.9393 13.2102 24.1508Z" fill="#311907"/>
<path d="M37.7632 18.3261C38.6996 20.6538 37.5727 23.3044 35.2449 24.2408C32.9172 25.1772 30.2666 24.0503 29.3302 21.7225C29.2138 21.4315 29.1292 21.1406 29.0763 20.8443L27.2511 21.5797C27.3252 21.8706 27.4098 22.1616 27.5262 22.4526C28.8647 25.7803 32.6473 27.3886 35.975 26.0501C39.3027 24.7116 40.911 20.929 39.5725 17.6013C39.4561 17.3156 39.3186 17.0458 39.1652 16.7812L37.34 17.5166C37.504 17.7653 37.6468 18.0404 37.7632 18.3261Z" fill="white"/>
<path d="M35.2396 24.2407C37.5674 23.3043 38.6942 20.6538 37.7578 18.326C37.6414 18.0351 37.4986 17.7653 37.3346 17.5166L29.0709 20.8443C29.1238 21.1405 29.2085 21.4368 29.3249 21.7225C30.2613 24.0503 32.9118 25.1771 35.2396 24.2407Z" fill="#311907"/>
</g>
<defs>
<clipPath id="clip0_55_751">
<rect width="49" height="49" fill="white"/>
</clipPath>
</defs>
</svg>
