<svg width="30" height="30" viewBox="0 0 30 30" fill="none" xmlns="http://www.w3.org/2000/svg">
<g clip-path="url(#clip0_55_818)">
<path d="M15 30C23.2843 30 30 23.2843 30 15C30 6.71573 23.2843 0 15 0C6.71573 0 0 6.71573 0 15C0 23.2843 6.71573 30 15 30Z" fill="#F6DD6F"/>
<path d="M8.4701 15C10.6668 15 12.4476 13.2192 12.4476 11.0225C12.4476 8.82573 10.6668 7.04492 8.4701 7.04492C6.27336 7.04492 4.49255 8.82573 4.49255 11.0225C4.49255 13.2192 6.27336 15 8.4701 15Z" fill="white"/>
<path d="M8.4701 15C10.6668 15 12.4476 13.2192 12.4476 11.0225C12.4476 8.82573 10.6668 7.04492 8.4701 7.04492C6.27336 7.04492 4.49255 8.82573 4.49255 11.0225C4.49255 13.2192 6.27336 15 8.4701 15Z" fill="white"/>
<path d="M8.47008 13.8048C10.0067 13.8048 11.2524 12.5591 11.2524 11.0224C11.2524 9.48581 10.0067 8.24011 8.47008 8.24011C6.93344 8.24011 5.68774 9.48581 5.68774 11.0224C5.68774 12.5591 6.93344 13.8048 8.47008 13.8048Z" fill="#311907"/>
<path d="M21.0408 15C23.2375 15 25.0183 13.2192 25.0183 11.0225C25.0183 8.82573 23.2375 7.04492 21.0408 7.04492C18.8441 7.04492 17.0633 8.82573 17.0633 11.0225C17.0633 13.2192 18.8441 15 21.0408 15Z" fill="white"/>
<path d="M21.0408 13.8048C22.5775 13.8048 23.8232 12.5591 23.8232 11.0224C23.8232 9.48581 22.5775 8.24011 21.0408 8.24011C19.5042 8.24011 18.2585 9.48581 18.2585 11.0224C18.2585 12.5591 19.5042 13.8048 21.0408 13.8048Z" fill="#311907"/>
<path d="M20.1566 18.6407H9.84344V19.3533H20.1566V18.6407Z" fill="#E09FBD"/>
</g>
<defs>
<clipPath id="clip0_55_818">
<rect width="30" height="30" fill="white"/>
</clipPath>
</defs>
</svg>
