<svg width="49" height="49" viewBox="0 0 49 49" fill="none" xmlns="http://www.w3.org/2000/svg">
<g clip-path="url(#clip0_55_743)">
<path d="M24.5 49C38.031 49 49 38.031 49 24.5C49 10.969 38.031 0 24.5 0C10.969 0 0 10.969 0 24.5C0 38.031 10.969 49 24.5 49Z" fill="#C02720"/>
<path d="M19.3154 23.4948C17.6648 25.3888 14.7974 25.5898 12.9034 23.9392C11.0094 22.2886 10.8084 19.4212 12.459 17.5272C12.6653 17.2891 12.8875 17.0828 13.1256 16.8976L11.639 15.6068C11.4115 15.8025 11.1893 16.0141 10.9883 16.2469C8.63403 18.9503 8.91442 23.0557 11.6231 25.41C14.3318 27.7642 18.4319 27.4838 20.7862 24.7751C20.9925 24.5423 21.1671 24.2937 21.3311 24.0397L19.8445 22.7489C19.6963 23.0081 19.5217 23.262 19.3154 23.4948Z" fill="white"/>
<path d="M12.9035 23.9392C14.7975 25.5898 17.6702 25.3888 19.3155 23.4948C19.5218 23.2568 19.6964 23.0081 19.8445 22.7489L13.1257 16.8977C12.8876 17.0828 12.6654 17.2891 12.4591 17.5272C10.8085 19.4212 11.0095 22.2939 12.9035 23.9392Z" fill="#311907"/>
<path d="M36.6099 17.6753C38.0912 19.7016 37.6468 22.5478 35.6206 24.0292C33.5944 25.5105 30.7481 25.0661 29.2668 23.0398C29.0816 22.7859 28.9282 22.5214 28.8012 22.2516L27.2141 23.4155C27.357 23.68 27.5104 23.9445 27.6955 24.1932C29.8117 27.087 33.8748 27.7219 36.7739 25.6057C39.6731 23.4895 40.3026 19.4265 38.1865 16.5273C38.0013 16.2787 37.8003 16.0512 37.5887 15.8343L36.0015 16.9982C36.2237 17.1992 36.43 17.4267 36.6152 17.6806L36.6099 17.6753Z" fill="white"/>
<path d="M35.6206 24.0292C37.6469 22.5478 38.0913 19.7016 36.6099 17.6753C36.4248 17.4214 36.2185 17.1939 35.9963 16.9929L28.8013 22.2516C28.9282 22.5267 29.0817 22.7912 29.2668 23.0398C30.7481 25.0661 33.5944 25.5105 35.6206 24.0292Z" fill="#311907"/>
<path d="M24.5001 41.0379C27.4424 41.0379 29.8275 38.2974 29.8275 34.9169C29.8275 31.5363 27.4424 28.7958 24.5001 28.7958C21.5578 28.7958 19.1726 31.5363 19.1726 34.9169C19.1726 38.2974 21.5578 41.0379 24.5001 41.0379Z" fill="#E09FBD"/>
</g>
<defs>
<clipPath id="clip0_55_743">
<rect width="49" height="49" fill="white"/>
</clipPath>
</defs>
</svg>
