<svg width="30" height="30" viewBox="0 0 30 30" fill="none" xmlns="http://www.w3.org/2000/svg">
<g clip-path="url(#clip0_55_834)">
<path d="M15 30C23.2843 30 30 23.2843 30 15C30 6.71573 23.2843 0 15 0C6.71573 0 0 6.71573 0 15C0 23.2843 6.71573 30 15 30Z" fill="#EA8532"/>
<path d="M20.1566 20.6651H9.84344V21.3777H20.1566V20.6651Z" fill="#E09FBD"/>
<path d="M11.3885 12.1367C11.3885 13.6752 10.1414 14.919 8.60614 14.919C7.07083 14.919 5.8238 13.672 5.8238 12.1367C5.8238 11.9456 5.84324 11.7577 5.87887 11.5796H4.67394C4.64803 11.7609 4.63184 11.9488 4.63184 12.1367C4.63184 14.3327 6.41331 16.1142 8.60938 16.1142C10.8054 16.1142 12.5869 14.3327 12.5869 12.1367C12.5869 11.9456 12.5675 11.7609 12.5448 11.5796H11.3399C11.3755 11.7609 11.395 11.9456 11.395 12.1367H11.3885Z" fill="white"/>
<path d="M8.60613 14.919C10.1447 14.919 11.3885 13.672 11.3885 12.1367C11.3885 11.9456 11.369 11.7577 11.3334 11.5796H5.87886C5.84323 11.7609 5.82379 11.9456 5.82379 12.1367C5.82379 13.6752 7.07082 14.919 8.60613 14.919Z" fill="#311907"/>
<path d="M23.9592 12.1367C23.9592 13.6752 22.7122 14.919 21.1768 14.919C19.6415 14.919 18.3945 13.672 18.3945 12.1367C18.3945 11.9456 18.4139 11.7577 18.4496 11.5796H17.2447C17.2187 11.7609 17.2025 11.9488 17.2025 12.1367C17.2025 14.3327 18.984 16.1142 21.1801 16.1142C23.3762 16.1142 25.1576 14.3327 25.1576 12.1367C25.1576 11.9456 25.1382 11.7609 25.1155 11.5796H23.9106C23.9462 11.7609 23.9657 11.9456 23.9657 12.1367H23.9592Z" fill="white"/>
<path d="M21.1769 14.919C22.7154 14.919 23.9592 13.672 23.9592 12.1367C23.9592 11.9456 23.9398 11.7577 23.9041 11.5796H18.4496C18.414 11.7609 18.3945 11.9456 18.3945 12.1367C18.3945 13.6752 19.6416 14.919 21.1769 14.919Z" fill="#311907"/>
</g>
<defs>
<clipPath id="clip0_55_834">
<rect width="30" height="30" fill="white"/>
</clipPath>
</defs>
</svg>
