<svg width="68" height="68" viewBox="0 0 68 68" fill="none" xmlns="http://www.w3.org/2000/svg">
<g clip-path="url(#clip0_55_701)">
<path d="M54.0317 34.0283C54.4006 34.0805 54.7556 34.2048 55.0764 34.3943C55.3971 34.5837 55.6774 34.8346 55.9011 35.1325C56.1248 35.4304 56.2875 35.7695 56.38 36.1304C56.4725 36.4913 56.4929 36.8669 56.4401 37.2357C55.7299 42.1487 53.4272 46.6931 49.8855 50.1714C46.3437 53.6497 41.7585 55.8698 36.8334 56.491V59.5C36.8334 60.2514 36.5349 60.9721 36.0035 61.5035C35.4722 62.0348 34.7515 62.3333 34.0001 62.3333C33.2486 62.3333 32.528 62.0348 31.9966 61.5035C31.4652 60.9721 31.1667 60.2514 31.1667 59.5V56.491C26.2423 55.8687 21.658 53.6482 18.1169 50.1701C14.5758 46.6919 12.2734 42.1481 11.5629 37.2357C11.4562 36.4917 11.6494 35.7359 12.1 35.1344C12.5506 34.5329 13.2216 34.135 13.9656 34.0283C14.7095 33.9216 15.4653 34.1148 16.0668 34.5654C16.6683 35.016 17.0662 35.6871 17.1729 36.431C17.7589 40.4758 19.7822 44.1743 22.8725 46.8491C25.9627 49.5239 29.913 50.996 34.0001 50.996C38.0871 50.996 42.0374 49.5239 45.1277 46.8491C48.2179 44.1743 50.2412 40.4758 50.8272 36.431C50.88 36.0626 51.0049 35.7083 51.1946 35.3881C51.3844 35.068 51.6354 34.7884 51.9332 34.5653C52.231 34.3422 52.5699 34.1799 52.9305 34.0878C53.291 33.9956 53.6634 33.9754 54.0317 34.0283ZM34.0001 5.66667C37.7573 5.66667 41.3606 7.15922 44.0174 9.81599C46.6742 12.4728 48.1667 16.0761 48.1667 19.8333V34C48.1667 37.7572 46.6742 41.3606 44.0174 44.0173C41.3606 46.6741 37.7573 48.1667 34.0001 48.1667C30.2428 48.1667 26.6395 46.6741 23.9827 44.0173C21.326 41.3606 19.8334 37.7572 19.8334 34V19.8333C19.8334 16.0761 21.326 12.4728 23.9827 9.81599C26.6395 7.15922 30.2428 5.66667 34.0001 5.66667Z" fill="#1772DE"/>
</g>
<defs>
<clipPath id="clip0_55_701">
<rect width="68" height="68" fill="white"/>
</clipPath>
</defs>
</svg>
